<svg version="1.1" xmlns="http://www.w3.org/2000/svg" xmlns:xlink="http://www.w3.org/1999/xlink" x="0px" y="0px"
	 width="878.68px" height="244.58px" viewBox="0 0 878.68 244.58" style="enable-background:new 0 0 878.68 244.58;"
	 xml:space="preserve">
<style type="text/css">
	.st0{fill:#FFFFFF;}
</style>
<defs>
</defs>
<g>
	<g>
		<path class="st0" d="M65.01,0c11.7,0,22.36,2.45,31.99,7.35c9.63,4.9,17.2,11.78,22.7,20.64c5.5,8.86,8.26,18.96,8.26,30.31
			c0,11.35-2.75,21.5-8.26,30.44s-13.07,15.87-22.7,20.77c-9.63,4.9-20.3,7.35-31.99,7.35H34.83v67.85H0V0H65.01z M86.3,76.37
			c4.9-4.99,7.35-11.01,7.35-18.06c0-7.05-2.45-13.03-7.35-17.93c-4.9-4.9-11.65-7.35-20.25-7.35H34.83v50.83h31.22
			C74.65,83.85,81.4,81.35,86.3,76.37z"/>
		<path class="st0" d="M136.32,154.67c-5.93-10.58-8.9-22.49-8.9-35.73c0-13.07,2.97-24.94,8.9-35.6
			c5.93-10.66,14.23-19.05,24.9-25.15c10.66-6.11,22.79-9.16,36.38-9.16c13.42,0,25.46,3.05,36.12,9.16s18.96,14.49,24.9,25.15
			c5.93,10.66,8.9,22.53,8.9,35.6c0,13.24-2.97,25.15-8.9,35.73c-5.93,10.58-14.23,18.92-24.9,25.03
			c-10.66,6.11-22.7,9.16-36.12,9.16c-13.59,0-25.71-3.05-36.38-9.16C150.56,173.59,142.26,165.25,136.32,154.67z M228.81,139.58
			c3.27-5.85,4.9-12.73,4.9-20.64c0-7.74-1.63-14.53-4.9-20.38c-3.27-5.85-7.65-10.32-13.16-13.42c-5.5-3.1-11.52-4.64-18.06-4.64
			c-6.54,0-12.56,1.55-18.06,4.64c-5.5,3.1-9.93,7.57-13.29,13.42c-3.35,5.85-5.03,12.64-5.03,20.38c0,7.74,1.68,14.58,5.03,20.51
			c3.35,5.93,7.78,10.45,13.29,13.54s11.52,4.64,18.06,4.64c6.54,0,12.56-1.55,18.06-4.64S225.55,145.42,228.81,139.58z"/>
		<path class="st0" d="M314.16,0v184.72h-33.8V0H314.16z"/>
		<path class="st0" d="M319.04,53.15h38.44l34.06,81.78h2.06l32.77-81.78h37.67l-81.27,187.3h-36.38l28.12-61.92L319.04,53.15z"/>
		<path class="st0" d="M460.05,206.4l31.73-12.9c2.75,6.54,6.97,11.7,12.64,15.48c5.68,3.78,12.13,5.68,19.35,5.68
			c10.66,0,19.13-3.27,25.41-9.8c6.28-6.54,9.42-15.82,9.42-27.86v-10.32h-2.06c-4.13,5.85-9.55,10.32-16.25,13.42
			c-6.71,3.1-14.36,4.64-22.96,4.64c-10.84,0-20.94-2.79-30.31-8.38c-9.37-5.59-16.9-13.5-22.57-23.74
			c-5.68-10.23-8.51-22.15-8.51-35.73c0-13.59,2.84-25.5,8.51-35.73s13.2-18.15,22.57-23.74c9.37-5.59,19.48-8.38,30.31-8.38
			c8.6,0,16.25,1.55,22.96,4.64s12.13,7.57,16.25,13.42h2.06V53.15h32.51V175.7c0,14.1-2.75,26.32-8.26,36.64
			s-13.33,18.27-23.48,23.86s-22.02,8.38-35.6,8.38c-16.68,0-30.53-3.74-41.54-11.22S463.84,216.89,460.05,206.4z M558.61,116.87
			c0-11.87-3.31-21.03-9.93-27.48c-6.62-6.45-14.75-9.67-24.38-9.67s-17.8,3.27-24.51,9.8s-10.06,15.65-10.06,27.35
			s3.35,20.81,10.06,27.35c6.71,6.54,14.88,9.8,24.51,9.8c9.46,0,17.54-3.31,24.25-9.93C555.26,137.47,558.61,128.4,558.61,116.87z"
			/>
		<path class="st0" d="M612.4,154.67c-5.93-10.58-8.9-22.49-8.9-35.73c0-13.07,2.97-24.94,8.9-35.6
			c5.93-10.66,14.23-19.05,24.9-25.15c10.66-6.11,22.79-9.16,36.38-9.16c13.42,0,25.46,3.05,36.12,9.16s18.96,14.49,24.9,25.15
			s8.9,22.53,8.9,35.6c0,13.24-2.97,25.15-8.9,35.73c-5.93,10.58-14.23,18.92-24.9,25.03c-10.66,6.11-22.7,9.16-36.12,9.16
			c-13.59,0-25.71-3.05-36.38-9.16C626.63,173.59,618.34,165.25,612.4,154.67z M704.89,139.58c3.27-5.85,4.9-12.73,4.9-20.64
			c0-7.74-1.63-14.53-4.9-20.38c-3.27-5.85-7.65-10.32-13.16-13.42c-5.5-3.1-11.52-4.64-18.06-4.64s-12.56,1.55-18.06,4.64
			c-5.5,3.1-9.93,7.57-13.29,13.42c-3.35,5.85-5.03,12.64-5.03,20.38c0,7.74,1.68,14.58,5.03,20.51
			c3.35,5.93,7.78,10.45,13.29,13.54c5.5,3.1,11.52,4.64,18.06,4.64s12.56-1.55,18.06-4.64S701.62,145.42,704.89,139.58z"/>
		<path class="st0" d="M787.86,53.15v16.51h2.06c3.96-6.36,9.54-11.4,16.77-15.09c7.22-3.7,15.05-5.55,23.48-5.55
			c15.82,0,27.86,4.82,36.12,14.45s12.38,22.79,12.38,39.47v81.78h-33.8v-77.66c0-8.43-2.15-14.96-6.45-19.61
			c-4.3-4.64-10.32-6.97-18.06-6.97c-9.12,0-16.47,3.53-22.06,10.58c-5.59,7.05-8.38,15.91-8.38,26.57v67.08h-33.8V53.15H787.86z"/>
	</g>
</g>
</svg>
