<svg width="16" height="15" viewBox="0 0 16 15" fill="none" xmlns="http://www.w3.org/2000/svg">
<path d="M13.8 6.29922H2.2C0.984 6.29922 0 7.28322 0 8.49922V13.6992C0 14.0272 0.272 14.2992 0.6 14.2992C0.928 14.2992 1.2 14.0272 1.2 13.6992V11.8992H14.8V13.6992C14.8 14.0272 15.072 14.2992 15.4 14.2992C15.728 14.2992 16 14.0272 16 13.6992V8.49922C16 7.28322 15.016 6.29922 13.8 6.29922ZM12.2 0.699219H3.8C2.584 0.699219 1.6 1.68322 1.6 2.89922V5.49922H4C4 5.05922 4.36 4.69922 4.8 4.69922H6.4C6.84 4.69922 7.2 5.05922 7.2 5.49922H8.8C8.8 5.05922 9.16 4.69922 9.6 4.69922H11.2C11.64 4.69922 12 5.05922 12 5.49922H14.4V2.89922C14.4 1.68322 13.416 0.699219 12.2 0.699219Z" fill="white"/>
</svg>
