<svg id="Layer_1" data-name="Layer 1" xmlns="http://www.w3.org/2000/svg" viewBox="0 0 470.69 136.69">
  <defs>
    <style>
      .cls-1 {
        fill: #1a2026;
        stroke-width: 0px;
      }
    </style>
  </defs>
  <g>
    <polygon class="cls-1" points="238.83 11.29 272.49 4.5 272.48 0 238.71 9.35 238.83 11.29"/>
    <polygon class="cls-1" points="234.12 84.22 256.16 29.7 278.72 84.22 286.57 84.22 258.75 19.27 258.05 19.27 229.03 84.22 234.12 84.22"/>
  </g>
  <polygon class="cls-1" points="0 84.22 29.02 19.27 29.73 19.27 57.54 84.22 49.7 84.22 27.13 29.7 5.09 84.22 0 84.22"/>
  <path class="cls-1" d="M111.29,84.24c.08-2.82,5.05-51.23,5.05-51.23,0,0,9.72,19.55,13.85,27.54,4.05,7.81,7.96,15.68,11.64,23.4,3.72-8.38,7.68-16.51,11.77-24.17,4.19-7.84,14.41-27.03,14.41-27.03,0,0,2.16,19.86,2.86,27.79.66,7.51,1.34,15.49,2.02,23.71h7.22c-.71-4.94-1.36-9.95-1.94-14.91-.64-5.37-1.27-10.81-1.91-16.32-.64-5.52-3.07-27.95-3.73-33.73-1.52,2.8-28.81,53.49-28.81,53.49,0,0-23.62-44.66-27.92-53.5h-.34c-.49,4.87-1.08,10.02-1.74,15.34-.7,5.59-1.47,11.36-2.29,17.14-.82,5.77-1.69,11.59-2.58,17.28-.83,5.32-1.63,10.39-2.4,15.21h4.84Z"/>
  <rect class="cls-1" x="464.39" y="20.72" width="6.3" height="63.6"/>
  <path class="cls-1" d="M356.39,81.86s-.26-52.07-.2-61.12c0,0-.01-.01-.02-.02h-6.96l.67,63.6h45.84s.33-4.04.33-4.04l-39.65,1.58Z"/>
  <path class="cls-1" d="M323.85,134.13h-2.64v-11.48h2.64c2.24,0,3.23,1.43,3.23,4.77v1.92c0,3.33-.99,4.79-3.23,4.79M323.85,136.48c3.5,0,5.85-1.95,5.85-7.14v-1.92c0-5.19-2.35-7.14-5.85-7.14h-5.26v16.2h5.26ZM297.94,120.28v11.15l-6.41-11.15h-2.26v16.2h2.53v-11.01l6.35,11.01h2.33v-16.2h-2.53ZM266.15,124.23l2.08,6.55h-4.16l2.08-6.55ZM262.28,136.48l1.06-3.36h5.62l1.06,3.36h2.78l-5.42-16.2h-2.48l-5.42,16.2h2.8ZM237.42,120.28h-2.62v16.2h9.55v-2.35h-6.93v-13.85ZM217.28,122.73c-1.11-1.78-2.84-2.65-5.33-2.65-3.66,0-5.19,2.04-5.19,4.48,0,2.75,1.69,4.25,4.7,4.91,2.71.61,3.41,1.41,3.41,2.7,0,1.17-.68,2.16-2.82,2.16-1.78,0-2.71-.61-3.64-1.76l-2.06,1.48c1.29,1.81,3.16,2.65,5.83,2.65,3.75,0,5.31-2.23,5.31-4.65,0-2.91-1.63-4.13-4.77-4.83-2.17-.49-3.34-1.1-3.34-2.65,0-1.36.95-2.11,2.55-2.11,1.76,0,2.6.66,3.37,1.76l1.99-1.48ZM188.87,120.28h-2.62v16.2h2.62v-16.2Z"/>
</svg>