<svg version="1.1" id="Layer_1" xmlns="http://www.w3.org/2000/svg" xmlns:xlink="http://www.w3.org/1999/xlink" x="0px" y="0px"
	 viewBox="0 0 470.7 136.7" style="enable-background:new 0 0 470.7 136.7;" xml:space="preserve">
<style type="text/css">
	.st0{fill:#FFFFFF;}
</style>
<g>
	<g>
		<polygon class="st0" points="238.8,11.3 272.5,4.5 272.5,0 238.7,9.4 		"/>
		<polygon class="st0" points="234.1,84.2 256.2,29.7 278.7,84.2 286.6,84.2 258.8,19.3 258.1,19.3 229,84.2 		"/>
	</g>
	<polygon class="st0" points="0,84.2 29,19.3 29.7,19.3 57.5,84.2 49.7,84.2 27.1,29.7 5.1,84.2 	"/>
	<path class="st0" d="M111.3,84.2c0.1-2.8,5-51.2,5-51.2s9.7,19.6,13.8,27.5c4,7.8,8,15.7,11.6,23.4c3.7-8.4,7.7-16.5,11.8-24.2
		c4.2-7.8,14.4-27,14.4-27s2.2,19.9,2.9,27.8c0.7,7.5,1.3,15.5,2,23.7h7.2c-0.7-4.9-1.4-10-1.9-14.9c-0.6-5.4-1.3-10.8-1.9-16.3
		c-0.6-5.5-3.1-27.9-3.7-33.7c-1.5,2.8-28.8,53.5-28.8,53.5s-23.6-44.7-27.9-53.5h-0.3c-0.5,4.9-1.1,10-1.7,15.3
		c-0.7,5.6-1.5,11.4-2.3,17.1c-0.8,5.8-1.7,11.6-2.6,17.3c-0.8,5.3-1.6,10.4-2.4,15.2H111.3z"/>
	<rect x="464.4" y="20.7" class="st0" width="6.3" height="63.6"/>
	<path class="st0" d="M356.4,81.9c0,0-0.3-52.1-0.2-61.1c0,0,0,0,0,0h-7l0.7,63.6l45.8,0l0.3-4L356.4,81.9z"/>
	<g>
		<g>
			<path class="st0" d="M323.8,134.1h-2.6v-11.5h2.6c2.2,0,3.2,1.4,3.2,4.8v1.9C327.1,132.7,326.1,134.1,323.8,134.1 M323.8,136.5
				c3.5,0,5.8-1.9,5.8-7.1v-1.9c0-5.2-2.3-7.1-5.8-7.1h-5.3v16.2H323.8z M297.9,120.3v11.1l-6.4-11.1h-2.3v16.2h2.5v-11l6.3,11h2.3
				v-16.2H297.9z M266.1,124.2l2.1,6.5h-4.2L266.1,124.2z M262.3,136.5l1.1-3.4h5.6l1.1,3.4h2.8l-5.4-16.2h-2.5l-5.4,16.2H262.3z
				 M237.4,120.3h-2.6v16.2h9.6v-2.3h-6.9V120.3z M217.3,122.7c-1.1-1.8-2.8-2.7-5.3-2.7c-3.7,0-5.2,2-5.2,4.5
				c0,2.7,1.7,4.2,4.7,4.9c2.7,0.6,3.4,1.4,3.4,2.7c0,1.2-0.7,2.2-2.8,2.2c-1.8,0-2.7-0.6-3.6-1.8l-2.1,1.5c1.3,1.8,3.2,2.7,5.8,2.7
				c3.7,0,5.3-2.2,5.3-4.6c0-2.9-1.6-4.1-4.8-4.8c-2.2-0.5-3.3-1.1-3.3-2.7c0-1.4,0.9-2.1,2.6-2.1c1.8,0,2.6,0.7,3.4,1.8
				L217.3,122.7z M188.9,120.3h-2.6v16.2h2.6V120.3z"/>
		</g>
	</g>
</g>
</svg>
