<svg viewBox="0 0 225 31.2" xmlns="http://www.w3.org/2000/svg"><g fill="#716751"><path d="m12.4 10.8h-2l-2.4-6.9-2.3 6.9h-2l-3.7-10.6h2.5l2.2 7.1 2.3-7.1h2l2.4 7.2 2.2-7.1h2.4z"/><path d="m37.3 10.7-1-2.4h-4.4l-1 2.4h-2.3l4.5-10.6h2.1l4.5 10.6zm-3.2-7.8-1.4 3.4h2.8z"/><path d="m58.6 10.7h-4.1v-10.5h4.1c3.3 0 5.6 2.3 5.6 5.2s-2.3 5.3-5.3 5.3zm3.2-5.2c.1-1.7-1.2-3.1-2.8-3.2h-2.2v6.4h1.8c1.7.1 3.1-1.2 3.2-2.8z"/><path d="m79.4 10.7v-10.5h8v2.1h-5.7v2.1h5v2.1h-5v2.2h5.7v2.1h-8z"/><path d="m106.5 10.7h-3.7v-10.5h3.7c2.9-.1 5.4 2.1 5.5 5s-2.1 5.4-5 5.5zm0-9.4h-2.5v8.4h2.5c2.3.2 4.2-1.5 4.4-3.8v-.4c0-2.3-1.8-4.1-4-4.2z"/><path d="m135.3 1.3h-6.4v3.6h5.8v1.1h-5.8v3.7h6.5v1.1h-7.7v-10.6h7.6z"/><path d="m154.7 4.9c2.4.5 3.4 1.4 3.4 3 0 1.8-1.5 3-3.6 3-1.6 0-3.1-.6-4.3-1.7l.7-.9c1 1 2.3 1.5 3.6 1.5 1.4 0 2.4-.7 2.4-1.8s-.5-1.6-2.8-2c-2.4-.6-3.5-1.3-3.5-3.1s1.4-2.9 3.4-2.9c1.4 0 2.7.4 3.7 1.3l-.7.9c-.8-.7-1.9-1.1-3-1.1-1.4 0-2.2.8-2.2 1.7s.6 1.6 2.9 2.1z"/><path d="m175 .2v10.6h-1.2v-10.6z"/><path d="m196.1 10.9c-2.9.1-5.3-2.1-5.4-4.9v-.5c-.1-2.9 2.2-5.4 5.1-5.5h.2c1.4-.1 2.9.4 3.9 1.4l-.8.9c-.9-.8-2-1.2-3.2-1.2-2.3.1-4.1 2-4 4.2v.1c-.2 2.2 1.5 4.2 3.7 4.4h.4c1.1 0 2.2-.4 3.1-1.1v-2.5h-3.2v-1.1h4.4v4.2c-1.2 1-2.7 1.6-4.2 1.6z"/><path d="m223.8.2h1.2v10.6h-.9l-6.8-8.6v8.6h-1.2v-10.6h1.1l6.6 8.5z"/><path d="m12.9 31.1h-1.3l-1.2-2.8h-5.8l-1.2 2.8h-1.3l4.8-10.6h1.1zm-5.4-9.3-2.4 5.4h4.8z"/><path d="m37.1 31.1-3.1-4.1h-3v4.1h-1.2v-10.6h4.5c2.3 0 3.8 1.2 3.8 3.1 0 1.6-1.2 3-2.9 3.1l3.2 4.3h-1.3zm-2.9-9.5h-3.2v4.3h3.2c1.6 0 2.7-.8 2.7-2.2s-.9-2.1-2.7-2.1z"/><path d="m58.2 31.2c-2.9 0-5.3-2.3-5.3-5.2v-.2c-.1-2.9 2.2-5.4 5.1-5.5h.2c1.5 0 3 .6 4.1 1.7l-.8.9c-.9-.9-2.1-1.4-3.3-1.5-2.3 0-4.1 1.9-4.1 4.2v.2c-.1 2.3 1.6 4.2 3.9 4.3h.1c1.3 0 2.5-.5 3.4-1.5l.8.8c-1 1.2-2.5 1.9-4.1 1.8z"/><path d="m80.4 26.3v4.7h-1.2v-10.5h1.2v4.7h6.1v-4.7h1.2v10.6h-1.2v-4.8z"/><path d="m108 20.5v10.6h-1.2v-10.6z"/><path d="m132.2 31.1h-1.2v-9.5h-3.6v-1.1h8.2v1.1h-3.5v9.5z"/><path d="m157.9 21.6h-6.4v3.6h5.8v1.1h-5.8v3.7h6.5v1.1h-7.7v-10.6h7.6z"/><path d="m174.3 31.2c-2.9 0-5.3-2.3-5.3-5.2v-.2c-.1-2.9 2.2-5.4 5.1-5.5h.2c1.5 0 3 .6 4.1 1.7l-.8.9c-.9-.9-2.1-1.4-3.3-1.5-2.3 0-4.1 1.9-4.1 4.2v.2c-.1 2.3 1.6 4.2 3.9 4.4h.1c1.3 0 2.5-.5 3.4-1.5l.8.8c-.9 1.1-2.5 1.8-4.1 1.7z"/><path d="m196.1 31.1h-1.2v-9.5h-3.6v-1.1h8.3v1.1h-3.6z"/><path d="m221.1 25.2c2.4.5 3.4 1.4 3.4 3 0 1.8-1.5 3-3.6 3-1.6 0-3.2-.6-4.3-1.7l.7-.9c1 1 2.3 1.5 3.6 1.5 1.4 0 2.4-.7 2.4-1.8s-.5-1.6-2.7-2c-2.4-.5-3.5-1.3-3.5-3.1s1.5-2.9 3.5-2.9c1.4 0 2.7.4 3.7 1.3l-.7.9c-.8-.7-1.9-1.1-3.1-1.1-1.4 0-2.2.8-2.2 1.7s.4 1.6 2.8 2.1z"/></g></svg>