<svg viewBox="0 0 28 28" xmlns="http://www.w3.org/2000/svg"><g fill="none" fill-rule="evenodd" stroke="#fff" stroke-linejoin="round"><path d="m8.98129813 1.7019877c-3.79317082 2.9805906-5.83429497 6.06730808-6.12337243 9.2601524-.4336162 4.7892666.24046277 7.7339126 3.02903253 10.5842086 4.29519837 4.3902745 9.82309547 5.3759786 15.19937047 2.8915745 1.2161158-.5619734 2.9845555-1.8979067 5.305319-4.0078002-3.1012665.7559965-5.3553619 1.0420294-6.7622864.8580986-3.2833541-.4292413-6.2706229-2.335911-8.4257933-4.5058607-2.35761406-2.3737816-3.58747187-5.7508365-3.46211139-9.42133232.04192835-1.22764222.45520886-3.11398918 1.23984152-5.65904088z" transform="matrix(.98768834 .15643447 -.15643447 .98768834 2.328484 -2.109243)"/><path d="m20.2822773 8.19302766 1.6869417-1.80722617.2775533 2.01127227 2.7246779.53527096-2.7246779.82642974.4314082 2.62702704-2.0360739-1.9708677-1.9929445 1.0290754.7944809-2.05820771-1.1947085-2.20603129z"/></g></svg>