<svg viewBox="0 0 28 28" xmlns="http://www.w3.org/2000/svg"><g fill="none" fill-rule="evenodd" stroke="#fff" transform="translate(1 1.374788)"><path d="m12.96774 16.6344665c2.3359318 0 4.2497277-.3026017 4.2497277-2.7051525s-.138766-5.29484748-3.3608813-5.29484748-4.64718985 1.85209728-4.64718985 4.25464808 1.42241175 3.7453519 3.75834345 3.7453519z"/><g stroke-linecap="square" stroke-linejoin="round"><path d="m20.9483795 7.83564915c-.0910217-.71603052-.9022533-2.2946244-2.4336947-4.73578163.0450183 3.37922007.067632 5.0796726.0678411 5.10135758.0105602 1.09489489.8569983 2.0834901 2.5393143 2.9657857-.0246187-1.50487726-.082439-2.61533113-.1734607-3.33136165z" transform="matrix(.40673664 .91354546 -.91354546 .40673664 18.274169 -13.872875)"/><path d="m7.74153017 19.0748251c-.09102175-.7160305-.90225331-2.2946244-2.4336947-4.7357816.04501827 3.3792201.06763198 5.0796726.06784113 5.1013576.01056019 1.0948949.85699827 2.0834901 2.53931425 2.9657857-.02461871-1.5048773-.08243894-2.6153311-.17346068-3.3313617z" transform="matrix(-.35836795 -.93358043 .93358043 -.35836795 -8.171582 31.129057)"/><path d="m20.7955081 19.9154308c-.0910217-.7160305-1.0596954-2.3127472-2.906021-4.7901501.0450182 3.3792201.0676319 5.0796726.0678411 5.1013576.0105602 1.0948949.9573605 2.2360305 2.840401 3.4234069.089541-1.7737124.0888006-3.0185839-.0022211-3.7346144z" transform="matrix(-.89100652 .4539905 -.4539905 -.89100652 45.44368 27.865264)"/><path d="m22.9624158 13.2622996c-.0910218-.7160305-.9022533-2.2946243-2.4336947-4.73578159.0450182 3.37922009.067632 5.07967259.0678411 5.10135759.0105602 1.0948949.8758209 2.362457 2.595782 3.8026864-.0622639-2.0628111-.1389067-3.4522318-.2299284-4.1682624z" transform="matrix(-.32556815 .94551858 -.94551858 -.32556815 41.249077 -3.465601)"/><path d="m5.89743803 13.4110332c-.09102174-.7160305-.79392089-2.4966415-2.10869745-5.34183298-.37405934 1.76318021-.55754797 2.91085958-.55046587 3.44303798.01742197 1.3091584.1664245 2.5556975.16908726 2.5660089.3534112 1.3685583 1.07463406 2.2885656 2.16366857 2.7600217.30862674-1.5687932.41742924-2.7112051.32640749-3.4272356z" transform="matrix(.25881905 -.96592583 .96592583 .25881905 -8.632325 13.657605)"/><path d="m8.4470033 7.39778344c-.09102174-.71603052-.90225331-2.29462439-2.4336947-4.73578163.04501827 3.37922007.06763199 5.0796726.06784114 5.10135758.01056019 1.09489489.85699827 2.08349011 2.53931425 2.96578571-.02461871-1.50487727-.08243894-2.61533114-.17346069-3.33136166z" transform="matrix(.8480481 -.52991926 .52991926 .8480481 -2.436298 4.894764)"/><path d="m14.8833187 4.79714257c-.3131863-.64828976-1.2675499-2.16455536-2.8630908-4.54879677.0450183 3.37922007.067632 5.0796726.0678412 5.10135759.0105602 1.09489488.766488 2.16551862 2.2677834 3.21187121.6648304-1.86133159.8406525-3.11614226.5274662-3.76443203z" transform="matrix(.96592583 .25881905 -.25881905 .96592583 1.601009 -3.350948)"/><path d="m13.9542246 21.3464607c-.3131863-.6482897-1.2675499-2.1645553-2.8630908-4.5487967.0450183 3.37922.067632 5.0796726.0678412 5.1013576.0105602 1.0948948.766488 2.1655186 2.2677834 3.2118712.6648304-1.8613316.8406525-3.1161423.5274662-3.7644321z" transform="matrix(-.93358043 -.35836795 .35836795 -.93358043 16.849705 45.031464)"/></g></g></svg>