<svg xmlns="http://www.w3.org/2000/svg" width="59" height="81.5" viewBox="0 0 59 81.5"><g data-name="Path 5" fill="none"><path d="M.5 0h26l.5 81.5H0z"/><path d="M2.488 2l-.476 77.5h22.976L24.512 2H2.488M.5 0h26l.5 81.5H0L.5 0z" fill="#283590"/></g><path data-name="Path 3" d="M13.5 81V33.743" fill="#fff" stroke="#283590" stroke-width="2"/><path data-name="Path 4" d="M13.605 6.099c9.684.163 11.782.347 11.782 6.7C25.138 24.875 16.122 33.5 13.605 33.5S2.411 24.877 2.383 12.8c0-6.355 1.538-6.864 11.222-6.701z" fill="#fff" stroke="#283590" stroke-width="2"/><g data-name="Group 10" transform="translate(-2107 -1071.5)"><g data-name="Path 6" fill="#fff"><path d="M2161.303 1151.681h-15.54l8.179-62.726 7.361 62.726z"/><path d="M2153.89 1097.09l-6.988 53.591h13.277l-6.29-53.592m.105-16.269l8.434 71.861h-17.804l9.37-71.86z" fill="#283590"/></g><rect data-name="Rectangle 5" width="22" height="11" rx="5.5" transform="translate(2143 1089.5)" fill="none" stroke="#283590" stroke-width="2"/><path data-name="Path 7" d="M2154 1079.093v21.406" fill="#fff" stroke="#283590" stroke-width="2"/></g></svg>