<svg xmlns="http://www.w3.org/2000/svg" width="77.215" height="62.444" viewBox="0 0 77.215 62.444"><g data-name="Group 17" stroke="#283590"><g data-name="Group 18"><path data-name="Path 8" d="M34.994 14.289c.013-2.089-.23-4.247-.077-6.131a22.227 22.227 0 0 1 1.044-6.439 29.5 29.5 0 0 0-9.3 5.414c-2.554 2.241-5.787 5.578-5.617 9.2a6.888 6.888 0 0 0 12.946 2.94 10.578 10.578 0 0 0 1.004-4.984z" fill="none" stroke-miterlimit="10" stroke-width="2"/><path data-name="Path 9" d="M8.221 20.371c-.869-1.348-1.6-2.846-2.474-4a17.067 17.067 0 0 0-3.325-3.744 22.654 22.654 0 0 1 8.251-.319c2.578.4 6.046 1.231 7.429 3.651a5.288 5.288 0 0 1-7.178 7.235 8.121 8.121 0 0 1-2.703-2.823z" fill="none" stroke-miterlimit="10" stroke-width="2"/><path data-name="Path 15" d="M13.668 18.802s4.613 2.018 6.953 4.664a10.14 10.14 0 0 1 2.4 5.922 26.319 26.319 0 0 1 1.237-8.472 24.022 24.022 0 0 1 4.342-7.1" fill="rgba(0,0,0,0)" stroke-linecap="square" stroke-linejoin="bevel" stroke-width="1.8"/></g><path data-name="Path 11" d="M42.137 3.733a28.233 28.233 0 0 1 5.007-.43 29.07 29.07 0 1 1-29.015 30.87" fill="none" stroke-linecap="square" stroke-linejoin="bevel" stroke-width="2"/><path data-name="Path 12" d="M52.911 5.581a4.011 4.011 0 0 1-2.071 1.6l-3.2 1.083a4.013 4.013 0 0 0-2.71 3.444l-.19 2.129a4.014 4.014 0 0 1-1.321 2.633l-1.827 1.636a4.013 4.013 0 0 0 .709 6.488l8.291 4.666a4.014 4.014 0 0 0 .909.373l8.431 2.306a4.014 4.014 0 0 0 3-.358l2.209-1.22a4.018 4.018 0 0 1 1.131-.418l.448-.092a4.013 4.013 0 0 1 4.251 1.866l.29.484a4.013 4.013 0 0 0 2.773 1.892l1.83.346" fill="none" stroke-linecap="square" stroke-linejoin="bevel" stroke-width="2"/><path data-name="Path 13" d="M18.336 34.235l3.412-.457a22.079 22.079 0 0 1 5.172.192l7.525 2 .479.144a5.529 5.529 0 0 1 3.892 6.038l-.847 6.256a5.53 5.53 0 0 0 .3 2.688l.757 2.012a5.528 5.528 0 0 1-.1 4.143L37.779 59.9" fill="none" stroke-linecap="square" stroke-linejoin="bevel" stroke-width="2"/><path data-name="Path 14" d="M56.476 37.17l-.311.14a3.59 3.59 0 0 0-2.085 3.743l.224 1.695a3.59 3.59 0 0 1-.881 2.86 3.59 3.59 0 0 0-.439 4.171l.39.682a3.59 3.59 0 0 0 3.116 1.808h3.432a3.588 3.588 0 0 0 2.063-.653l2.274-1.6a3.589 3.589 0 0 0 1.371-3.977l-1.481-4.891a3.59 3.59 0 0 0-1.517-1.993l-2.764-1.748a3.59 3.59 0 0 0-3.392-.237z" fill="none" stroke-linecap="square" stroke-linejoin="bevel" stroke-width="2"/></g></svg>