<svg xmlns="http://www.w3.org/2000/svg" width="79.115" height="69.168" viewBox="0 0 79.115 69.168"><g data-name="Rectangle 2" fill="none" stroke="#283590" stroke-width="2"><path d="M0 3.014h69.115a10 10 0 0 1 10 10v52.539H10a10 10 0 0 1-10-10V3.014z" stroke="none"/><path d="M1 4.014h68.115a9 9 0 0 1 9 9v51.539H10a9 9 0 0 1-9-9V4.014z"/></g><g data-name="Subtraction 1" fill="#fff"><path d="M14.07 54.793a8.7 8.7 0 0 0-.568-.612 8.485 8.485 0 0 0-5.967-2.437 8.538 8.538 0 0 0-5.969 2.434A9.023 9.023 0 0 1 1 51.032V1h13.07v53.793z"/><path d="M13.07 52.516V2H2v49.032c0 .47.041.938.122 1.397a9.532 9.532 0 0 1 5.413-1.685c2.008 0 3.928.621 5.535 1.772m1.998 7.588a7.49 7.49 0 0 0-2.266-5.208 7.49 7.49 0 0 0-5.267-2.152 7.54 7.54 0 0 0-6.21 3.265A9.997 9.997 0 0 1 0 51.032V0h15.07l-.002 60.104z" fill="#283590"/></g><g data-name="Subtraction 2" fill="#fff"><path d="M65.045 14.376a8.7 8.7 0 0 0 .568.612 8.485 8.485 0 0 0 5.967 2.437 8.537 8.537 0 0 0 5.97-2.434 9.03 9.03 0 0 1 .565 3.145v50.032h-13.07V14.376z"/><path d="M66.045 16.653v50.515h11.07V18.136c0-.47-.041-.937-.122-1.396a9.532 9.532 0 0 1-5.413 1.685 9.467 9.467 0 0 1-5.535-1.772m-1.998-7.588a7.49 7.49 0 0 0 2.266 5.208 7.49 7.49 0 0 0 5.267 2.152 7.54 7.54 0 0 0 6.21-3.266 9.997 9.997 0 0 1 1.325 4.977v51.032h-15.07l.002-60.103z" fill="#283590"/></g></svg>